#!OML:ASF I:\Actors\actors\Patient Classification 2\Patient 1\Session 1\actor1.ASF
:FULLY-SPECIFIED
:DEGREES
361
root -0.89693 18.3997 5.32503 -3.16776 2.32458 -6.45437
lowerback 13.8318 -0.409942 1.53909
upperback 3.87439 -0.266337 1.31371
thorax -3.67008 -0.137552 0.549142
lowerneck 11.406 -21.6906 -20.7924
upperneck 1.55962 -32.5769 24.4406
head 6.19515 -16.7573 7.99948
rclavicle 4.27387e-015 0
rhumerus -35.0631 26.0215 -98.5153
rradius 96.8988
rwrist 5.4343
rhand -20.5223 -25.677
rfingers 7.12502
rthumb 5.83558 -55.5766
lclavicle 4.27387e-015 0
lhumerus -50.7668 -4.43697 92.1981
lradius 109.006
lwrist 2.95066
lhand -9.85437 -31.1184
lfingers 7.12502
lthumb 16.1239 -1.76916
rfemur 4.22907 -1.36359 21.8218
rtibia 12.773
rfoot -20.7133 -12.0106
rtoes -11.1641
lfemur -10.797 -3.86846 -6.78838
ltibia 35.0513
lfoot -21.3382 5.76824
ltoes -57.9866
362
root -0.834094 18.4032 5.3329 -3.10823 0.942329 -6.4344
lowerback 13.6442 -0.572566 1.35394
upperback 3.87992 -0.511506 1.36417
thorax -3.56095 -0.259123 0.745239
lowerneck 11.764 -21.6186 -20.8434
upperneck 1.46343 -32.5603 24.6921
head 6.165 -16.7828 8.1288
rclavicle -1.88845e-015 -1.98785e-015
rhumerus -34.987 27.6617 -99.3263
rradius 96.8663
rwrist 3.98899
rhand -22.7849 -25.0917
rfingers 7.12502
rthumb 3.65085 -55.0402
lclavicle -1.88845e-015 -1.98785e-015
lhumerus -51.3231 -3.74209 91.6825
lradius 108.955
lwrist 2.71929
lhand -9.67243 -31.1103
lfingers 7.12502
lthumb 16.2991 -1.77532
rfemur 4.19193 -0.329686 21.6819
rtibia 12.58
rfoot -20.38 -11.7854
rtoes -11.1437
lfemur -10.2982 -3.10397 -7.01108
ltibia 34.9058
lfoot -21.611 6.43075
ltoes -57.9077
363
root -0.771348 18.408 5.33858 -3.04751 -0.39679 -6.35675
lowerback 13.591 -0.702042 1.09086
upperback 3.84985 -0.717484 1.45083
thorax -3.55873 -0.361519 1.01778
lowerneck 11.7722 -21.565 -20.8566
upperneck 1.62517 -32.5257 24.6704
head 6.20425 -16.7626 8.12936
rclavicle -1.23246e-014 -2.78299e-015
rhumerus -34.8245 28.7773 -99.835
rradius 96.7276
rwrist 4.10506
rhand -22.8768 -24.9462
rfingers 7.12502
rthumb 3.56204 -54.8962
lclavicle -1.23246e-014 -2.78299e-015
lhumerus -51.881 -3.16654 91.3106
lradius 108.895
lwrist 2.42185
lhand -9.60604 -31.2056
lfingers 7.12502
lthumb 16.363 -1.87584
rfemur 4.21642 0.819376 21.4946
rtibia 12.2591
rfoot -20.0354 -11.6908
rtoes -10.8313
lfemur -9.83844 -2.53969 -7.31896
ltibia 34.7795
lfoot -21.9079 7.1498
ltoes -57.8029
364
root -0.710121 18.4109 5.34384 -2.98261 -1.7206 -6.31678
lowerback 13.4688 -0.818425 0.826307
upperback 3.91026 -0.907817 1.56932
thorax -3.42126 -0.456538 1.31926
lowerneck 11.5874 -21.5469 -20.71
upperneck 1.75449 -32.464 24.5147
head 6.20419 -16.714 8.0623
rclavicle -2.28602e-015 -5.56597e-015
rhumerus -34.3172 29.457 -99.9489
rradius 96.5634
rwrist 5.62364
rhand -20.5709 -25.2826
rfingers 7.12502
rthumb 5.78864 -55.1836
lclavicle -2.28602e-015 -5.56597e-015
lhumerus -52.2948 -2.69245 90.9603
lradius 108.868
lwrist 2.21185
lhand -9.60809 -31.3704
lfingers 7.12502
lthumb 16.361 -2.04046
rfemur 4.26704 1.87503 21.3407
rtibia 11.8793
rfoot -19.6773 -11.5746
rtoes -10.6344
lfemur -9.40762 -1.95332 -7.57831
ltibia 34.6737
lfoot -22.1668 7.86524
ltoes -57.8299
365
root -0.648872 18.4122 5.34823 -2.86574 -3.01427 -6.33426
lowerback 13.1925 -0.933063 0.625053
upperback 4.04985 -1.09058 1.70458
thorax -3.1157 -0.549452 1.59586
lowerneck 11.522 -21.4615 -20.6097
upperneck 1.56544 -32.3039 24.6193
head 6.12398 -16.6393 8.11954
rclavicle -1.91827e-014 -1.51076e-014
rhumerus -33.9247 30.3612 -100.165
rradius 96.4839
rwrist 5.82361
rhand -19.0348 -25.9527
rfingers 7.12502
rthumb 7.27154 -55.8078
lclavicle -1.91827e-014 -1.51076e-014
lhumerus -52.5279 -2.20869 90.6195
lradius 108.899
lwrist 2.06609
lhand -9.60207 -31.5833
lfingers 7.12502
lthumb 16.3668 -2.25388
rfemur 4.25172 2.73231 21.2017
rtibia 11.4949
rfoot -19.3177 -11.3004
rtoes -10.8306
lfemur -9.0632 -1.24814 -7.74941
ltibia 34.5846
lfoot -22.4207 8.43769
ltoes -57.7799
366
root -0.590428 18.4137 5.35092 -2.67377 -4.26499 -6.33779
lowerback 13.0009 -1.01381 0.491113
upperback 4.08142 -1.21709 1.8035
thorax -2.97082 -0.614343 1.78951
lowerneck 11.4894 -21.3925 -20.5295
upperneck 1.37739 -32.1758 24.7277
head 6.0502 -16.5823 8.17589
rclavicle 1.8487e-014 9.14409e-015
rhumerus -34.0389 31.2585 -100.706
rradius 96.5186
rwrist 4.82403
rhand -18.4443 -26.9271
rfingers 7.12502
rthumb 7.84148 -56.7617
lclavicle 1.8487e-014 9.14409e-015
lhumerus -52.7934 -1.83218 90.327
lradius 108.967
lwrist 2.04506
lhand -9.6972 -31.8288
lfingers 7.12502
lthumb 16.2752 -2.49181
rfemur 4.14078 3.31159 20.9938
rtibia 11.089
rfoot -18.8509 -10.8187
rtoes -11.266
lfemur -8.83103 -0.503971 -7.90478
ltibia 34.5079
lfoot -22.7145 8.85761
ltoes -57.5161
367
root -0.535982 18.4152 5.35318 -2.49417 -5.46494 -6.27635
lowerback 12.9411 -1.0684 0.371737
upperback 4.04889 -1.30547 1.84462
thorax -2.9663 -0.659323 1.91238
lowerneck 11.3288 -21.3933 -20.3814
upperneck 1.35721 -32.1282 24.6591
head 6.02048 -16.5474 8.13637
rclavicle 2.52457e-014 -1.23246e-014
rhumerus -34.3185 31.8381 -101.288
rradius 96.6093
rwrist 4.19649
rhand -18.073 -27.4175
rfingers 7.12502
rthumb 8.19989 -57.2384
lclavicle 2.52457e-014 -1.23246e-014
lhumerus -53.1151 -1.60456 90.0677
lradius 109.088
lwrist 2.21579
lhand -9.93225 -32.1208
lfingers 7.12502
lthumb 16.0489 -2.76549
rfemur 4.03811 3.71223 20.7046
rtibia 10.6577
rfoot -18.291 -10.3133
rtoes -11.9491
lfemur -8.60889 0.189905 -8.11782
ltibia 34.4265
lfoot -22.9979 9.2284
ltoes -57.1825
368
root -0.485407 18.418 5.35509 -2.33447 -6.63106 -6.16516
lowerback 12.8747 -1.12685 0.215812
upperback 4.04337 -1.40496 1.85925
thorax -2.92887 -0.710015 2.0291
lowerneck 11.2055 -21.3616 -20.2816
upperneck 1.25641 -32.043 24.6814
head 5.9775 -16.5009 8.14192
rclavicle 9.74045e-015 -2.42517e-014
rhumerus -34.511 32.3409 -101.821
rradius 96.6736
rwrist 3.90913
rhand -18.053 -27.5095
rfingers 7.12502
rthumb 8.21913 -57.3297
lclavicle 9.74045e-015 -2.42517e-014
lhumerus -53.4005 -1.31255 89.8061
lradius 109.28
lwrist 2.39825
lhand -10.1346 -32.4651
lfingers 7.12502
lthumb 15.854 -3.09417
rfemur 3.91422 4.08983 20.3868
rtibia 10.2848
rfoot -17.7001 -9.93802
rtoes -13.0768
lfemur -8.36611 0.797177 -8.38977
ltibia 34.3013
lfoot -23.2708 9.62811
ltoes -56.8977
369
root -0.437172 18.4217 5.35512 -2.17169 -7.7509 -6.01992
lowerback 12.7948 -1.18752 0.0521425
upperback 4.05122 -1.50918 1.85342
thorax -2.86969 -0.763221 2.12867
lowerneck 11.1064 -21.3318 -20.1658
upperneck 1.10106 -31.9503 24.7021
head 5.90945 -16.4542 8.15233
rclavicle -1.10325e-014 -1.07344e-014
rhumerus -34.6342 32.8821 -102.323
rradius 96.6887
rwrist 3.67038
rhand -18.0163 -27.719
rfingers 7.12502
rthumb 8.25458 -57.5378
lclavicle -1.10325e-014 -1.07344e-014
lhumerus -53.5862 -0.963373 89.5403
lradius 109.566
lwrist 2.57416
lhand -10.2209 -32.564
lfingers 7.12502
lthumb 15.7709 -3.18647
rfemur 3.73043 4.87019 20.0664
rtibia 9.98398
rfoot -17.3461 -9.91419
rtoes -14.0526
lfemur -8.16305 1.28329 -8.71111
ltibia 34.1676
lfoot -23.5239 10.0377
ltoes -56.4919
